<mxfile host="app.diagrams.net" modified="2024-03-05T16:12:00.373Z" agent="Mozilla/5.0 (X11; Linux x86_64; rv:123.0) Gecko/20100101 Firefox/123.0" etag="UyeUqw8lWwv-g7ekNxtJ" version="23.1.6" type="device">
  <diagram name="Страница — 1" id="vrgezJ7B-YLv_EHeS3jQ">
    <mxGraphModel dx="1110" dy="618" grid="1" gridSize="10" guides="1" tooltips="1" connect="1" arrows="1" fold="1" page="1" pageScale="1" pageWidth="827" pageHeight="1169" math="0" shadow="0">
      <root>
        <mxCell id="0" />
        <mxCell id="1" parent="0" />
        <mxCell id="Fakl-59DxZULmXfelZNi-33" style="edgeStyle=orthogonalEdgeStyle;rounded=0;orthogonalLoop=1;jettySize=auto;html=1;entryX=0.5;entryY=0;entryDx=0;entryDy=0;fontSize=12;startSize=8;endSize=8;exitX=0.567;exitY=0.775;exitDx=0;exitDy=0;exitPerimeter=0;" edge="1" parent="1" source="0zdQ3jHa8vZy0U4UM1dL-9" target="0zdQ3jHa8vZy0U4UM1dL-26">
          <mxGeometry relative="1" as="geometry">
            <Array as="points">
              <mxPoint x="515" y="962" />
            </Array>
          </mxGeometry>
        </mxCell>
        <mxCell id="0zdQ3jHa8vZy0U4UM1dL-9" value="print str_arr;&lt;br&gt;print new_str_arr;" style="shape=document;whiteSpace=wrap;html=1;boundedLbl=1;" parent="1" vertex="1">
          <mxGeometry x="450" y="940" width="120" height="80" as="geometry" />
        </mxCell>
        <mxCell id="0zdQ3jHa8vZy0U4UM1dL-26" value="end" style="rounded=1;whiteSpace=wrap;html=1;" parent="1" vertex="1">
          <mxGeometry x="455" y="1060" width="120" height="60" as="geometry" />
        </mxCell>
        <mxCell id="BaABoTEARzqdIM5QQD3y-13" style="edgeStyle=orthogonalEdgeStyle;rounded=0;orthogonalLoop=1;jettySize=auto;html=1;entryX=0.5;entryY=0;entryDx=0;entryDy=0;fontSize=12;startSize=8;endSize=8;exitX=1;exitY=0.5;exitDx=0;exitDy=0;" parent="1" source="BaABoTEARzqdIM5QQD3y-2" target="0zdQ3jHa8vZy0U4UM1dL-26" edge="1">
          <mxGeometry relative="1" as="geometry">
            <Array as="points">
              <mxPoint x="740" y="210" />
              <mxPoint x="740" y="1030" />
              <mxPoint x="515" y="1030" />
            </Array>
          </mxGeometry>
        </mxCell>
        <mxCell id="BaABoTEARzqdIM5QQD3y-14" value="No" style="edgeLabel;html=1;align=center;verticalAlign=middle;resizable=0;points=[];fontSize=12;" parent="BaABoTEARzqdIM5QQD3y-13" vertex="1" connectable="0">
          <mxGeometry x="-0.1333" relative="1" as="geometry">
            <mxPoint x="-400" y="-222" as="offset" />
          </mxGeometry>
        </mxCell>
        <mxCell id="n7afEmk5R6gk1xJ9aCYG-4" style="edgeStyle=none;curved=1;rounded=0;orthogonalLoop=1;jettySize=auto;html=1;exitX=0.5;exitY=1;exitDx=0;exitDy=0;fontSize=12;startSize=8;endSize=8;" parent="1" edge="1">
          <mxGeometry relative="1" as="geometry">
            <mxPoint x="560" y="695" as="sourcePoint" />
            <mxPoint x="560" y="695" as="targetPoint" />
          </mxGeometry>
        </mxCell>
        <mxCell id="Fakl-59DxZULmXfelZNi-18" style="edgeStyle=orthogonalEdgeStyle;rounded=0;orthogonalLoop=1;jettySize=auto;html=1;fontSize=12;startSize=8;endSize=8;entryX=0.5;entryY=0;entryDx=0;entryDy=0;" edge="1" parent="1" source="Fakl-59DxZULmXfelZNi-8" target="Fakl-59DxZULmXfelZNi-19">
          <mxGeometry relative="1" as="geometry">
            <mxPoint x="560" y="430" as="targetPoint" />
          </mxGeometry>
        </mxCell>
        <mxCell id="Fakl-59DxZULmXfelZNi-20" value="Yes" style="edgeLabel;html=1;align=center;verticalAlign=middle;resizable=0;points=[];fontSize=12;" vertex="1" connectable="0" parent="Fakl-59DxZULmXfelZNi-18">
          <mxGeometry x="-0.5907" y="2" relative="1" as="geometry">
            <mxPoint as="offset" />
          </mxGeometry>
        </mxCell>
        <mxCell id="Fakl-59DxZULmXfelZNi-22" style="edgeStyle=none;curved=1;rounded=0;orthogonalLoop=1;jettySize=auto;html=1;entryX=0.5;entryY=0;entryDx=0;entryDy=0;fontSize=12;startSize=8;endSize=8;" edge="1" parent="1" source="Fakl-59DxZULmXfelZNi-19" target="Fakl-59DxZULmXfelZNi-21">
          <mxGeometry relative="1" as="geometry" />
        </mxCell>
        <mxCell id="Fakl-59DxZULmXfelZNi-19" value="string[] new_str_arr = new string[new_arr_size];&lt;br&gt;i = 0;&lt;br&gt;index = 0;" style="whiteSpace=wrap;html=1;" vertex="1" parent="1">
          <mxGeometry x="410" y="450" width="180" height="60" as="geometry" />
        </mxCell>
        <mxCell id="Fakl-59DxZULmXfelZNi-24" style="edgeStyle=none;curved=1;rounded=0;orthogonalLoop=1;jettySize=auto;html=1;entryX=0.5;entryY=0;entryDx=0;entryDy=0;fontSize=12;startSize=8;endSize=8;" edge="1" parent="1" source="Fakl-59DxZULmXfelZNi-21" target="Fakl-59DxZULmXfelZNi-25">
          <mxGeometry relative="1" as="geometry">
            <mxPoint x="560" y="645" as="targetPoint" />
          </mxGeometry>
        </mxCell>
        <mxCell id="Fakl-59DxZULmXfelZNi-29" value="No" style="edgeLabel;html=1;align=center;verticalAlign=middle;resizable=0;points=[];fontSize=12;" vertex="1" connectable="0" parent="Fakl-59DxZULmXfelZNi-24">
          <mxGeometry x="-0.56" y="-4" relative="1" as="geometry">
            <mxPoint x="4" y="9" as="offset" />
          </mxGeometry>
        </mxCell>
        <mxCell id="Fakl-59DxZULmXfelZNi-27" style="edgeStyle=orthogonalEdgeStyle;rounded=0;orthogonalLoop=1;jettySize=auto;html=1;entryX=0.5;entryY=0;entryDx=0;entryDy=0;fontSize=12;startSize=8;endSize=8;" edge="1" parent="1" source="Fakl-59DxZULmXfelZNi-21" target="0zdQ3jHa8vZy0U4UM1dL-9">
          <mxGeometry relative="1" as="geometry">
            <Array as="points">
              <mxPoint x="330" y="585" />
              <mxPoint x="330" y="910" />
              <mxPoint x="510" y="910" />
            </Array>
          </mxGeometry>
        </mxCell>
        <mxCell id="Fakl-59DxZULmXfelZNi-28" value="Yes" style="edgeLabel;html=1;align=center;verticalAlign=middle;resizable=0;points=[];fontSize=12;" vertex="1" connectable="0" parent="Fakl-59DxZULmXfelZNi-27">
          <mxGeometry x="-0.9077" y="1" relative="1" as="geometry">
            <mxPoint as="offset" />
          </mxGeometry>
        </mxCell>
        <mxCell id="Fakl-59DxZULmXfelZNi-21" value="i = arr_size?" style="rhombus;whiteSpace=wrap;html=1;" vertex="1" parent="1">
          <mxGeometry x="430" y="560" width="140" height="50" as="geometry" />
        </mxCell>
        <mxCell id="Fakl-59DxZULmXfelZNi-37" style="edgeStyle=none;curved=1;rounded=0;orthogonalLoop=1;jettySize=auto;html=1;exitX=0.5;exitY=1;exitDx=0;exitDy=0;fontSize=12;startSize=8;endSize=8;" edge="1" parent="1" source="Fakl-59DxZULmXfelZNi-25" target="Fakl-59DxZULmXfelZNi-34">
          <mxGeometry relative="1" as="geometry" />
        </mxCell>
        <mxCell id="Fakl-59DxZULmXfelZNi-40" value="Yes" style="edgeLabel;html=1;align=center;verticalAlign=middle;resizable=0;points=[];fontSize=12;" vertex="1" connectable="0" parent="Fakl-59DxZULmXfelZNi-37">
          <mxGeometry x="-0.25" y="-2" relative="1" as="geometry">
            <mxPoint as="offset" />
          </mxGeometry>
        </mxCell>
        <mxCell id="Fakl-59DxZULmXfelZNi-39" style="edgeStyle=orthogonalEdgeStyle;rounded=0;orthogonalLoop=1;jettySize=auto;html=1;entryX=0;entryY=0.5;entryDx=0;entryDy=0;fontSize=12;startSize=8;endSize=8;" edge="1" parent="1" source="Fakl-59DxZULmXfelZNi-25" target="Fakl-59DxZULmXfelZNi-35">
          <mxGeometry relative="1" as="geometry">
            <Array as="points">
              <mxPoint x="380" y="685" />
              <mxPoint x="380" y="865" />
            </Array>
          </mxGeometry>
        </mxCell>
        <mxCell id="Fakl-59DxZULmXfelZNi-41" value="No" style="edgeLabel;html=1;align=center;verticalAlign=middle;resizable=0;points=[];fontSize=12;" vertex="1" connectable="0" parent="Fakl-59DxZULmXfelZNi-39">
          <mxGeometry x="-0.8298" y="2" relative="1" as="geometry">
            <mxPoint as="offset" />
          </mxGeometry>
        </mxCell>
        <mxCell id="Fakl-59DxZULmXfelZNi-25" value="str_arr[i].Length &amp;lt;= 3?" style="rhombus;whiteSpace=wrap;html=1;" vertex="1" parent="1">
          <mxGeometry x="425" y="650" width="150" height="70" as="geometry" />
        </mxCell>
        <mxCell id="Fakl-59DxZULmXfelZNi-32" value="" style="group" vertex="1" connectable="0" parent="1">
          <mxGeometry x="80" y="40" width="245" height="700" as="geometry" />
        </mxCell>
        <mxCell id="0zdQ3jHa8vZy0U4UM1dL-1" value="start" style="rounded=1;whiteSpace=wrap;html=1;" parent="Fakl-59DxZULmXfelZNi-32" vertex="1">
          <mxGeometry x="100" width="120" height="60" as="geometry" />
        </mxCell>
        <mxCell id="0zdQ3jHa8vZy0U4UM1dL-3" value="get arr_size" style="shape=parallelogram;perimeter=parallelogramPerimeter;whiteSpace=wrap;html=1;fixedSize=1;" parent="Fakl-59DxZULmXfelZNi-32" vertex="1">
          <mxGeometry x="75" y="80" width="170" height="40" as="geometry" />
        </mxCell>
        <mxCell id="0zdQ3jHa8vZy0U4UM1dL-4" style="edgeStyle=orthogonalEdgeStyle;rounded=0;orthogonalLoop=1;jettySize=auto;html=1;exitX=0.5;exitY=1;exitDx=0;exitDy=0;" parent="Fakl-59DxZULmXfelZNi-32" source="0zdQ3jHa8vZy0U4UM1dL-1" target="0zdQ3jHa8vZy0U4UM1dL-3" edge="1">
          <mxGeometry relative="1" as="geometry" />
        </mxCell>
        <mxCell id="0zdQ3jHa8vZy0U4UM1dL-6" value="++new_arr_size;" style="whiteSpace=wrap;html=1;" parent="Fakl-59DxZULmXfelZNi-32" vertex="1">
          <mxGeometry x="100" y="620" width="120" height="30" as="geometry" />
        </mxCell>
        <mxCell id="Fakl-59DxZULmXfelZNi-13" style="edgeStyle=none;curved=1;rounded=0;orthogonalLoop=1;jettySize=auto;html=1;fontSize=12;startSize=8;endSize=8;" edge="1" parent="Fakl-59DxZULmXfelZNi-32" source="Q8Pu-1HOaa1khBzvrUTc-1" target="0zdQ3jHa8vZy0U4UM1dL-6">
          <mxGeometry relative="1" as="geometry" />
        </mxCell>
        <mxCell id="Fakl-59DxZULmXfelZNi-14" value="Yes" style="edgeLabel;html=1;align=center;verticalAlign=middle;resizable=0;points=[];fontSize=12;" vertex="1" connectable="0" parent="Fakl-59DxZULmXfelZNi-13">
          <mxGeometry x="-0.56" y="2" relative="1" as="geometry">
            <mxPoint x="-2" y="9" as="offset" />
          </mxGeometry>
        </mxCell>
        <mxCell id="Q8Pu-1HOaa1khBzvrUTc-1" value="str_arr[i].Length &amp;lt;= 3?" style="rhombus;whiteSpace=wrap;html=1;" parent="Fakl-59DxZULmXfelZNi-32" vertex="1">
          <mxGeometry x="85" y="510" width="150" height="70" as="geometry" />
        </mxCell>
        <mxCell id="BaABoTEARzqdIM5QQD3y-2" value="arr_size &amp;gt; 0?" style="rhombus;whiteSpace=wrap;html=1;" parent="Fakl-59DxZULmXfelZNi-32" vertex="1">
          <mxGeometry x="90" y="140" width="140" height="60" as="geometry" />
        </mxCell>
        <mxCell id="BaABoTEARzqdIM5QQD3y-3" style="edgeStyle=none;curved=1;rounded=0;orthogonalLoop=1;jettySize=auto;html=1;exitX=0.5;exitY=1;exitDx=0;exitDy=0;entryX=0.5;entryY=0;entryDx=0;entryDy=0;fontSize=12;startSize=8;endSize=8;" parent="Fakl-59DxZULmXfelZNi-32" source="0zdQ3jHa8vZy0U4UM1dL-3" target="BaABoTEARzqdIM5QQD3y-2" edge="1">
          <mxGeometry relative="1" as="geometry" />
        </mxCell>
        <mxCell id="Fakl-59DxZULmXfelZNi-12" style="edgeStyle=none;curved=1;rounded=0;orthogonalLoop=1;jettySize=auto;html=1;entryX=0.5;entryY=0;entryDx=0;entryDy=0;fontSize=12;startSize=8;endSize=8;" edge="1" parent="Fakl-59DxZULmXfelZNi-32" source="BaABoTEARzqdIM5QQD3y-15" target="Q8Pu-1HOaa1khBzvrUTc-1">
          <mxGeometry relative="1" as="geometry" />
        </mxCell>
        <mxCell id="BaABoTEARzqdIM5QQD3y-15" value="get str_arr[i];" style="shape=parallelogram;perimeter=parallelogramPerimeter;whiteSpace=wrap;html=1;fixedSize=1;" parent="Fakl-59DxZULmXfelZNi-32" vertex="1">
          <mxGeometry x="75" y="440" width="170" height="40" as="geometry" />
        </mxCell>
        <mxCell id="BaABoTEARzqdIM5QQD3y-18" value="string[] str_arr = new string[arr_size];&lt;br&gt;new_arr_size = 0;&lt;br&gt;i = 0;" style="whiteSpace=wrap;html=1;" parent="Fakl-59DxZULmXfelZNi-32" vertex="1">
          <mxGeometry x="100" y="250" width="120" height="60" as="geometry" />
        </mxCell>
        <mxCell id="BaABoTEARzqdIM5QQD3y-19" style="edgeStyle=none;curved=1;rounded=0;orthogonalLoop=1;jettySize=auto;html=1;exitX=0.5;exitY=1;exitDx=0;exitDy=0;entryX=0.5;entryY=0;entryDx=0;entryDy=0;fontSize=12;startSize=8;endSize=8;" parent="Fakl-59DxZULmXfelZNi-32" source="BaABoTEARzqdIM5QQD3y-2" target="BaABoTEARzqdIM5QQD3y-18" edge="1">
          <mxGeometry relative="1" as="geometry" />
        </mxCell>
        <mxCell id="BaABoTEARzqdIM5QQD3y-20" value="Yes" style="edgeLabel;html=1;align=center;verticalAlign=middle;resizable=0;points=[];fontSize=12;" parent="BaABoTEARzqdIM5QQD3y-19" vertex="1" connectable="0">
          <mxGeometry x="0.2" y="2" relative="1" as="geometry">
            <mxPoint x="-2" y="-14" as="offset" />
          </mxGeometry>
        </mxCell>
        <mxCell id="Fakl-59DxZULmXfelZNi-10" style="edgeStyle=none;curved=1;rounded=0;orthogonalLoop=1;jettySize=auto;html=1;fontSize=12;startSize=8;endSize=8;" edge="1" parent="Fakl-59DxZULmXfelZNi-32" source="Fakl-59DxZULmXfelZNi-8" target="BaABoTEARzqdIM5QQD3y-15">
          <mxGeometry relative="1" as="geometry" />
        </mxCell>
        <mxCell id="Fakl-59DxZULmXfelZNi-11" value="No" style="edgeLabel;html=1;align=center;verticalAlign=middle;resizable=0;points=[];fontSize=12;" vertex="1" connectable="0" parent="Fakl-59DxZULmXfelZNi-10">
          <mxGeometry x="-0.2" relative="1" as="geometry">
            <mxPoint as="offset" />
          </mxGeometry>
        </mxCell>
        <mxCell id="Fakl-59DxZULmXfelZNi-8" value="i = arr_size?" style="rhombus;whiteSpace=wrap;html=1;" vertex="1" parent="Fakl-59DxZULmXfelZNi-32">
          <mxGeometry x="90" y="340" width="140" height="50" as="geometry" />
        </mxCell>
        <mxCell id="Fakl-59DxZULmXfelZNi-9" style="edgeStyle=none;curved=1;rounded=0;orthogonalLoop=1;jettySize=auto;html=1;entryX=0.5;entryY=0;entryDx=0;entryDy=0;fontSize=12;startSize=8;endSize=8;" edge="1" parent="Fakl-59DxZULmXfelZNi-32" source="BaABoTEARzqdIM5QQD3y-18" target="Fakl-59DxZULmXfelZNi-8">
          <mxGeometry relative="1" as="geometry" />
        </mxCell>
        <mxCell id="Fakl-59DxZULmXfelZNi-38" style="edgeStyle=none;curved=1;rounded=0;orthogonalLoop=1;jettySize=auto;html=1;fontSize=12;startSize=8;endSize=8;" edge="1" parent="1" source="Fakl-59DxZULmXfelZNi-34" target="Fakl-59DxZULmXfelZNi-35">
          <mxGeometry relative="1" as="geometry" />
        </mxCell>
        <mxCell id="Fakl-59DxZULmXfelZNi-34" value="new_str_arr[index] = str_arr[i];&lt;br&gt;++index;" style="whiteSpace=wrap;html=1;" vertex="1" parent="1">
          <mxGeometry x="410" y="760" width="180" height="40" as="geometry" />
        </mxCell>
        <mxCell id="Fakl-59DxZULmXfelZNi-36" style="edgeStyle=orthogonalEdgeStyle;rounded=0;orthogonalLoop=1;jettySize=auto;html=1;entryX=1;entryY=0.5;entryDx=0;entryDy=0;fontSize=12;startSize=8;endSize=8;" edge="1" parent="1" source="Fakl-59DxZULmXfelZNi-35" target="Fakl-59DxZULmXfelZNi-21">
          <mxGeometry relative="1" as="geometry">
            <Array as="points">
              <mxPoint x="630" y="865" />
              <mxPoint x="630" y="585" />
            </Array>
          </mxGeometry>
        </mxCell>
        <mxCell id="Fakl-59DxZULmXfelZNi-35" value="++i;" style="whiteSpace=wrap;html=1;" vertex="1" parent="1">
          <mxGeometry x="410" y="850" width="180" height="30" as="geometry" />
        </mxCell>
        <mxCell id="Fakl-59DxZULmXfelZNi-49" style="edgeStyle=orthogonalEdgeStyle;rounded=0;orthogonalLoop=1;jettySize=auto;html=1;fontSize=12;startSize=8;endSize=8;entryX=0;entryY=0.5;entryDx=0;entryDy=0;" edge="1" parent="1" source="Fakl-59DxZULmXfelZNi-42" target="Fakl-59DxZULmXfelZNi-8">
          <mxGeometry relative="1" as="geometry">
            <mxPoint x="240" y="820" as="targetPoint" />
            <Array as="points">
              <mxPoint x="240" y="800" />
              <mxPoint x="80" y="800" />
              <mxPoint x="80" y="405" />
            </Array>
          </mxGeometry>
        </mxCell>
        <mxCell id="Fakl-59DxZULmXfelZNi-42" value="++i;" style="whiteSpace=wrap;html=1;" vertex="1" parent="1">
          <mxGeometry x="180" y="730" width="120" height="30" as="geometry" />
        </mxCell>
        <mxCell id="Fakl-59DxZULmXfelZNi-43" style="edgeStyle=none;curved=1;rounded=0;orthogonalLoop=1;jettySize=auto;html=1;exitX=1;exitY=0.5;exitDx=0;exitDy=0;fontSize=12;startSize=8;endSize=8;" edge="1" parent="1" source="Fakl-59DxZULmXfelZNi-42" target="Fakl-59DxZULmXfelZNi-42">
          <mxGeometry relative="1" as="geometry" />
        </mxCell>
        <mxCell id="Fakl-59DxZULmXfelZNi-44" style="edgeStyle=none;curved=1;rounded=0;orthogonalLoop=1;jettySize=auto;html=1;entryX=0.5;entryY=0;entryDx=0;entryDy=0;fontSize=12;startSize=8;endSize=8;" edge="1" parent="1" source="0zdQ3jHa8vZy0U4UM1dL-6" target="Fakl-59DxZULmXfelZNi-42">
          <mxGeometry relative="1" as="geometry" />
        </mxCell>
        <mxCell id="Fakl-59DxZULmXfelZNi-47" style="edgeStyle=orthogonalEdgeStyle;rounded=0;orthogonalLoop=1;jettySize=auto;html=1;fontSize=12;startSize=8;endSize=8;entryX=0;entryY=0.5;entryDx=0;entryDy=0;" edge="1" parent="1" source="Q8Pu-1HOaa1khBzvrUTc-1" target="Fakl-59DxZULmXfelZNi-42">
          <mxGeometry relative="1" as="geometry">
            <mxPoint x="90" y="585" as="targetPoint" />
            <Array as="points">
              <mxPoint x="120" y="585" />
              <mxPoint x="120" y="745" />
            </Array>
          </mxGeometry>
        </mxCell>
        <mxCell id="Fakl-59DxZULmXfelZNi-48" value="No" style="edgeLabel;html=1;align=center;verticalAlign=middle;resizable=0;points=[];fontSize=12;" vertex="1" connectable="0" parent="Fakl-59DxZULmXfelZNi-47">
          <mxGeometry x="-0.8415" y="2" relative="1" as="geometry">
            <mxPoint as="offset" />
          </mxGeometry>
        </mxCell>
      </root>
    </mxGraphModel>
  </diagram>
</mxfile>
